<?xml version="1.0" encoding="UTF-8" standalone="no"?>
<!-- Generator: Adobe Illustrator 15.1.0, SVG Export Plug-In  -->

<svg
   xmlns:a="http://ns.adobe.com/AdobeSVGViewerExtensions/3.0/"
   xmlns:dc="http://purl.org/dc/elements/1.1/"
   xmlns:cc="http://creativecommons.org/ns#"
   xmlns:rdf="http://www.w3.org/1999/02/22-rdf-syntax-ns#"
   xmlns:svg="http://www.w3.org/2000/svg"
   xmlns="http://www.w3.org/2000/svg"
   xmlns:sodipodi="http://sodipodi.sourceforge.net/DTD/sodipodi-0.dtd"
   xmlns:inkscape="http://www.inkscape.org/namespaces/inkscape"
   version="1.1"
   x="0px"
   y="0px"
   width="24px"
   height="24px"
   viewBox="0 0 24 24"
   style="overflow:visible;enable-background:new 0 0 24 24;"
   xml:space="preserve"
   preserveAspectRatio="xMinYMid meet"
   id="svg3049"
   inkscape:version="0.48.4 r9939"
   sodipodi:docname="icon.svg"><metadata
   id="metadata3111"><rdf:RDF><cc:Work
       rdf:about=""><dc:format>image/svg+xml</dc:format><dc:type
         rdf:resource="http://purl.org/dc/dcmitype/StillImage" /><dc:title></dc:title></cc:Work></rdf:RDF></metadata><sodipodi:namedview
   pagecolor="#ffffff"
   bordercolor="#666666"
   borderopacity="1"
   objecttolerance="10"
   gridtolerance="10"
   guidetolerance="10"
   inkscape:pageopacity="0"
   inkscape:pageshadow="2"
   inkscape:window-width="1280"
   inkscape:window-height="659"
   id="namedview3109"
   showgrid="true"
   inkscape:snap-global="false"
   inkscape:zoom="9.8333333"
   inkscape:cx="14.325565"
   inkscape:cy="0.80940442"
   inkscape:window-x="-8"
   inkscape:window-y="-8"
   inkscape:window-maximized="1"
   inkscape:current-layer="svg3049"><inkscape:grid
     type="xygrid"
     id="grid3169" /></sodipodi:namedview>
<defs
   id="defs3051">
</defs>
<linearGradient
   id="SVGID_1_"
   gradientUnits="userSpaceOnUse"
   x1="10.4995"
   y1="0"
   x2="10.4995"
   y2="19.4312">
	<stop
   offset="0"
   style="stop-color:#76A1F0"
   id="stop3054" />
	<stop
   offset="1"
   style="stop-color:#6B90D5"
   id="stop3056" />
	<a:midPointStop
   offset="0"
   style="stop-color:#76A1F0" />
	<a:midPointStop
   offset="0.5"
   style="stop-color:#76A1F0" />
	<a:midPointStop
   offset="1"
   style="stop-color:#6B90D5" />
</linearGradient>

<linearGradient
   id="SVGID_2_"
   gradientUnits="userSpaceOnUse"
   x1="10.4995"
   y1="0.9531"
   x2="10.4995"
   y2="16.8384">
	<stop
   offset="0"
   style="stop-color:#BBE0F7"
   id="stop3061" />
	<stop
   offset="1"
   style="stop-color:#82B4FB"
   id="stop3063" />
	<a:midPointStop
   offset="0"
   style="stop-color:#BBE0F7" />
	<a:midPointStop
   offset="0.5"
   style="stop-color:#BBE0F7" />
	<a:midPointStop
   offset="1"
   style="stop-color:#82B4FB" />
</linearGradient>

<linearGradient
   id="SVGID_3_"
   gradientUnits="userSpaceOnUse"
   x1="10.4985"
   y1="1.9775"
   x2="10.4985"
   y2="14.314">
	<stop
   offset="0"
   style="stop-color:#95BFF8"
   id="stop3068" />
	<stop
   offset="0.5569"
   style="stop-color:#84ADEF"
   id="stop3070" />
	<stop
   offset="1"
   style="stop-color:#7CA4EB"
   id="stop3072" />
	<a:midPointStop
   offset="0"
   style="stop-color:#95BFF8" />
	<a:midPointStop
   offset="0.4"
   style="stop-color:#95BFF8" />
	<a:midPointStop
   offset="1"
   style="stop-color:#7CA4EB" />
</linearGradient>


<linearGradient
   id="SVGID_4_"
   gradientUnits="userSpaceOnUse"
   x1="15"
   y1="7.8955"
   x2="15"
   y2="23.897"
   gradientTransform="matrix(1.2229043,0,0,1.3056139,-6.284522,-8.3109017)">
	<stop
   offset="0"
   style="stop-color:#90C50E"
   id="stop3079" />
	<stop
   offset="1"
   style="stop-color:#70A034"
   id="stop3081" />
	<a:midPointStop
   offset="0"
   style="stop-color:#90C50E" />
	<a:midPointStop
   offset="0.5"
   style="stop-color:#90C50E" />
	<a:midPointStop
   offset="1"
   style="stop-color:#70A034" />
</linearGradient>
<path
   style="fill:url(#SVGID_4_)"
   d="M 20.619372,2.0034485 H 3.4987124 c -1.3451948,0 -2.4458086,0.9139298 -2.4458086,2.3501051 V 16.104079 c 0,1.436176 1.1006138,2.611228 2.4458086,2.611228 v 4.177965 L 7.2897156,18.97643 H 20.619372 c 1.345195,0 2.445809,-1.436175 2.445809,-2.872351 V 4.3535536 c 0,-1.4361753 -1.100614,-2.3501051 -2.445809,-2.3501051 z"
   id="path3083"
   inkscape:connector-curvature="0" />
<linearGradient
   id="SVGID_5_"
   gradientUnits="userSpaceOnUse"
   x1="15"
   y1="8.8955"
   x2="15"
   y2="21.3911"
   gradientTransform="matrix(1.2471878,0,0,1.3624222,-6.656092,-9.1221089)">
	<stop
   offset="0"
   style="stop-color:#D9F991"
   id="stop3086" />
	<stop
   offset="0.2388"
   style="stop-color:#D7F88D"
   id="stop3088" />
	<stop
   offset="0.4501"
   style="stop-color:#D1F383"
   id="stop3090" />
	<stop
   offset="0.6509"
   style="stop-color:#C6EC71"
   id="stop3092" />
	<stop
   offset="0.844"
   style="stop-color:#B7E257"
   id="stop3094" />
	<stop
   offset="1"
   style="stop-color:#A8D73D"
   id="stop3096" />
	<a:midPointStop
   offset="0"
   style="stop-color:#D9F991" />
	<a:midPointStop
   offset="0.7317"
   style="stop-color:#D9F991" />
	<a:midPointStop
   offset="1"
   style="stop-color:#A8D73D" />
</linearGradient>
<path
   style="fill:url(#SVGID_5_)"
   d="M 4.5685978,17.990094 H 3.32141 c -0.7483126,0 -1.2471877,-0.953697 -1.2471877,-1.634907 V 4.0933863 c 0,-0.8174533 0.4988751,-1.0899378 1.2471877,-1.0899378 h 17.460629 c 0.748313,0 1.247188,0.2724845 1.247188,1.0899378 V 16.355187 c 0,0.817453 -0.498875,1.634907 -1.247188,1.634907 H 6.5640981 l -1.9955003,2.043632 v -2.043632 z"
   id="path3098"
   inkscape:connector-curvature="0" />
<linearGradient
   id="SVGID_6_"
   gradientUnits="userSpaceOnUse"
   x1="15"
   y1="9.8955"
   x2="15"
   y2="18.896">
	<stop
   offset="0"
   style="stop-color:#B3E810"
   id="stop3101" />
	<stop
   offset="1"
   style="stop-color:#90C60D"
   id="stop3103" />
	<a:midPointStop
   offset="0"
   style="stop-color:#B3E810" />
	<a:midPointStop
   offset="0.5"
   style="stop-color:#B3E810" />
	<a:midPointStop
   offset="1"
   style="stop-color:#90C60D" />
</linearGradient>
<polygon
   style="fill:url(#SVGID_6_)"
   points="10.2,18.9 10,18.9 10,18.9 8,18.9 8,9.9 22,9.9 22,18.9 "
   id="polygon3105"
   transform="matrix(1.2825003,0,0,1.4434399,-7.2217346,-10.286606)" />

<path
   id="path3151"
   style="fill:#ffffff;overflow:visible"
   d="m 10.975784,11.540065 c 0.545055,-0.493268 0.575158,-1.186242 0.08767,-2.018085 -0.571482,-0.975161 -0.555196,-1.44667 0.07068,-2.046297 0.280138,-0.2683888 0.509341,-0.5631714 0.509341,-0.6550723 0,-0.2862204 -0.547418,-0.788061 -0.859634,-0.788061 -0.418681,0 -1.7171073,1.3112477 -2.1015023,2.1222543 -0.6828268,1.440647 -0.5026892,3.068732 0.3954246,3.573841 0.5303265,0.298261 1.4624007,0.205654 1.8980257,-0.18858 z M 6.7480087,11.512815 C 7.2813882,10.979435 7.3065138,10.268611 6.8174587,9.547956 6.2317532,8.684881 6.2575725,8.127792 6.9147021,7.4498071 7.4346098,6.9133985 7.4414219,6.8866597 7.1654587,6.4654871 6.7469976,5.8268347 6.2870199,5.9313571 5.3691876,6.8736604 3.7960472,8.488744 3.5034004,10.98522 4.8019863,11.71227 c 0.576667,0.322864 1.5204327,0.226134 1.9460206,-0.199454 z m 11.6313073,2.796532 c 1.005796,-0.923373 1.579545,-2.129019 1.581736,-3.32374 0.0013,-0.774404 -0.06968,-0.975745 -0.494624,-1.400689 -0.626271,-0.626271 -1.49137,-0.672771 -2.126028,-0.114275 -0.65304,0.57467 -0.718185,1.269237 -0.191798,2.044905 0.570865,0.841207 0.552449,1.348414 -0.07216,1.98738 -0.588841,0.602375 -0.598225,0.646446 -0.245043,1.150685 0.375949,0.536743 0.656236,0.474412 1.547916,-0.344229 z m -4.255926,0.0077 c 1.117958,-1.030498 1.492619,-1.840575 1.502101,-3.247774 0.0072,-1.065424 -0.03115,-1.193881 -0.468545,-1.57047 -0.681121,-0.586427 -1.529423,-0.552723 -2.168292,0.08614 -0.608819,0.608819 -0.628016,1.129797 -0.07183,1.949382 0.56872,0.838058 0.544777,1.38434 -0.08489,1.936864 -0.581965,0.510666 -0.612471,0.657872 -0.245043,1.18245 0.375414,0.535978 0.656721,0.474353 1.536499,-0.336598 z"
   inkscape:connector-curvature="0" /></svg>
